<svg aria-hidden="true" style="position: absolute; width: 0; height: 0; overflow: hidden;" version="1.1" xmlns="http://www.w3.org/2000/svg" xmlns:xlink="http://www.w3.org/1999/xlink">
<defs>
<symbol id="icon-cart-icon" viewBox="0 0 44 32">
<path  stroke="#373837" stroke-linejoin="miter" stroke-linecap="butt" stroke-miterlimit="4" stroke-width="0.4211" d="M11.103 5.209c-0.398-2.068-2.111-3.546-4.081-3.525h-4.873c-0.257 0-0.465 0.222-0.465 0.495 0 0.275 0.208 0.498 0.465 0.498h4.873c1.517 0.008 2.829 1.144 3.153 2.73l2.878 13.9c0.502 2.502 2.574 4.279 4.964 4.271h16.563c2.43 0.003 4.524-1.822 5.011-4.369l2.504-14.001c0.052-0.27-0.111-0.53-0.361-0.588-0.023-0.005-7.527-0.009-22.512-0.011-0.255 0-0.463 0.222-0.463 0.498 0 0.273 0.208 0.495 0.463 0.495h21.901l-2.415 13.407c-0.376 2.097-2.084 3.615-4.081 3.625h-16.563c-1.972 0.019-3.685-1.459-4.083-3.527l-2.878-13.9z"></path>
<path  d="M16 32c-1.396 0-2.526-1.128-2.526-2.525s1.13-2.528 2.526-2.528c1.393 0 2.526 1.131 2.526 2.528s-1.133 2.525-2.526 2.525z"></path>
<path  d="M38.737 29.475c0 1.397-1.132 2.525-2.525 2.525-1.396 0-2.528-1.128-2.528-2.525s1.132-2.528 2.528-2.528c1.393 0 2.525 1.131 2.525 2.528z"></path>
</symbol>
</defs>
</svg>
